<svg xmlns="http://www.w3.org/2000/svg" xmlns:xlink="http://www.w3.org/1999/xlink" width="1200" zoomAndPan="magnify" viewBox="0 0 900 299.999988" height="400" preserveAspectRatio="xMidYMid meet" version="1.0"><defs><g/></defs><g fill="#000000" fill-opacity="1"><g transform="translate(39.445327, 214.499982)"><g><path d="M 42.046875 1.734375 C 29.378906 1.734375 20.378906 -1.597656 15.046875 -8.265625 C 9.722656 -14.941406 7.0625 -24.570312 7.0625 -37.15625 L 7.0625 -79.203125 C 7.0625 -92.066406 9.695312 -101.785156 14.96875 -108.359375 C 20.25 -114.929688 29.273438 -118.21875 42.046875 -118.21875 C 54.242188 -118.21875 62.882812 -115.289062 67.96875 -109.4375 C 73.050781 -103.582031 75.59375 -95.28125 75.59375 -84.53125 L 75.59375 -74.453125 L 50.40625 -74.453125 L 50.40625 -86.109375 C 50.40625 -90.617188 49.921875 -94.070312 48.953125 -96.46875 C 47.992188 -98.875 45.691406 -100.078125 42.046875 -100.078125 C 38.398438 -100.078125 36 -98.804688 34.84375 -96.265625 C 33.695312 -93.722656 33.125 -90.195312 33.125 -85.6875 L 33.125 -30.8125 C 33.125 -26.207031 33.722656 -22.679688 34.921875 -20.234375 C 36.117188 -17.785156 38.492188 -16.5625 42.046875 -16.5625 C 45.597656 -16.5625 47.878906 -17.785156 48.890625 -20.234375 C 49.898438 -22.679688 50.40625 -26.207031 50.40625 -30.8125 L 50.40625 -43.0625 L 75.59375 -43.0625 L 75.59375 -32.96875 C 75.59375 -22.03125 73.050781 -13.507812 67.96875 -7.40625 C 62.882812 -1.3125 54.242188 1.734375 42.046875 1.734375 Z M 42.046875 1.734375 "/></g></g></g><g fill="#000000" fill-opacity="1"><g transform="translate(120.517281, 214.499982)"><g><path d="M 34.703125 1.4375 C 25.585938 1.4375 18.457031 -0.863281 13.3125 -5.46875 C 8.175781 -10.082031 5.609375 -16.851562 5.609375 -25.78125 L 5.609375 -57.453125 C 5.609375 -66.378906 8.175781 -73.144531 13.3125 -77.75 C 18.457031 -82.363281 25.585938 -84.671875 34.703125 -84.671875 C 43.828125 -84.671875 50.976562 -82.34375 56.15625 -77.6875 C 61.34375 -73.03125 63.9375 -66.285156 63.9375 -57.453125 L 63.9375 -25.78125 C 63.9375 -16.945312 61.34375 -10.203125 56.15625 -5.546875 C 50.976562 -0.890625 43.828125 1.4375 34.703125 1.4375 Z M 34.84375 -14.109375 C 37.050781 -14.109375 38.585938 -14.945312 39.453125 -16.625 C 40.316406 -18.3125 40.75 -20.832031 40.75 -24.1875 L 40.75 -59.046875 C 40.75 -62.398438 40.316406 -64.914062 39.453125 -66.59375 C 38.585938 -68.28125 37.050781 -69.125 34.84375 -69.125 C 32.632812 -69.125 31.070312 -68.257812 30.15625 -66.53125 C 29.25 -64.800781 28.796875 -62.304688 28.796875 -59.046875 L 28.796875 -24.1875 C 28.796875 -20.832031 29.25 -18.3125 30.15625 -16.625 C 31.070312 -14.945312 32.632812 -14.109375 34.84375 -14.109375 Z M 34.84375 -14.109375 "/></g></g></g><g fill="#000000" fill-opacity="1"><g transform="translate(190.069247, 214.499982)"><g><path d="M 7.34375 -83.234375 L 30.8125 -83.234375 L 30.8125 -74.875 C 37.34375 -81.40625 44.015625 -84.671875 50.828125 -84.671875 C 55.816406 -84.671875 59.628906 -82.867188 62.265625 -79.265625 C 64.910156 -75.671875 66.234375 -70.992188 66.234375 -65.234375 L 66.234375 0 L 42.90625 0 L 42.90625 -61.921875 C 42.90625 -64.035156 42.546875 -65.59375 41.828125 -66.59375 C 41.109375 -67.601562 39.882812 -68.109375 38.15625 -68.109375 C 36.238281 -68.109375 33.789062 -67.101562 30.8125 -65.09375 L 30.8125 0 L 7.34375 0 Z M 7.34375 -83.234375 "/></g></g></g><g fill="#000000" fill-opacity="1"><g transform="translate(263.077191, 214.499982)"><g><path d="M 33.125 0.859375 C 26.976562 0.859375 22.222656 -0.0234375 18.859375 -1.796875 C 15.503906 -3.578125 13.15625 -6.144531 11.8125 -9.5 C 10.46875 -12.863281 9.796875 -17.234375 9.796875 -22.609375 L 9.796875 -67.828125 L 1.734375 -67.828125 L 1.734375 -83.234375 L 9.796875 -83.234375 L 9.796875 -108.578125 L 33.546875 -108.578125 L 33.546875 -83.234375 L 45.359375 -83.234375 L 45.359375 -67.828125 L 33.546875 -67.828125 L 33.546875 -24.90625 C 33.546875 -22.601562 34.191406 -20.898438 35.484375 -19.796875 C 36.785156 -18.691406 38.585938 -18.140625 40.890625 -18.140625 C 42.816406 -18.140625 44.929688 -18.332031 47.234375 -18.71875 L 47.234375 -0.28125 C 42.617188 0.476562 37.914062 0.859375 33.125 0.859375 Z M 33.125 0.859375 "/></g></g></g><g fill="#000000" fill-opacity="1"><g transform="translate(314.053154, 214.499982)"><g><path d="M 7.34375 -113.609375 L 30.953125 -113.609375 L 30.953125 -97.34375 L 7.34375 -97.34375 Z M 7.484375 -83.234375 L 30.953125 -83.234375 L 30.953125 0 L 7.484375 0 Z M 7.484375 -83.234375 "/></g></g></g><g fill="#000000" fill-opacity="1"><g transform="translate(352.213131, 214.499982)"><g><path d="M 7.34375 -83.234375 L 30.8125 -83.234375 L 30.8125 -74.875 C 37.34375 -81.40625 44.015625 -84.671875 50.828125 -84.671875 C 55.816406 -84.671875 59.628906 -82.867188 62.265625 -79.265625 C 64.910156 -75.671875 66.234375 -70.992188 66.234375 -65.234375 L 66.234375 0 L 42.90625 0 L 42.90625 -61.921875 C 42.90625 -64.035156 42.546875 -65.59375 41.828125 -66.59375 C 41.109375 -67.601562 39.882812 -68.109375 38.15625 -68.109375 C 36.238281 -68.109375 33.789062 -67.101562 30.8125 -65.09375 L 30.8125 0 L 7.34375 0 Z M 7.34375 -83.234375 "/></g></g></g><g fill="#000000" fill-opacity="1"><g transform="translate(425.221099, 214.499982)"><g><path d="M 22.03125 1.4375 C 17.039062 1.4375 13.203125 -0.359375 10.515625 -3.953125 C 7.828125 -7.554688 6.484375 -12.238281 6.484375 -18 L 6.484375 -83.234375 L 29.953125 -83.234375 L 29.953125 -20.734375 C 29.953125 -18.617188 30.332031 -17.035156 31.09375 -15.984375 C 31.863281 -14.929688 33.113281 -14.40625 34.84375 -14.40625 C 36.382812 -14.40625 38.691406 -15.265625 41.765625 -16.984375 L 41.765625 -83.234375 L 65.09375 -83.234375 L 65.09375 0 L 41.765625 0 L 41.765625 -7.625 C 35.234375 -1.582031 28.65625 1.4375 22.03125 1.4375 Z M 22.03125 1.4375 "/></g></g></g><g fill="#000000" fill-opacity="1"><g transform="translate(497.797051, 214.499982)"><g><path d="M 34.703125 1.4375 C 25.585938 1.4375 18.457031 -0.863281 13.3125 -5.46875 C 8.175781 -10.082031 5.609375 -16.851562 5.609375 -25.78125 L 5.609375 -57.453125 C 5.609375 -66.378906 8.175781 -73.144531 13.3125 -77.75 C 18.457031 -82.363281 25.585938 -84.671875 34.703125 -84.671875 C 43.828125 -84.671875 50.976562 -82.34375 56.15625 -77.6875 C 61.34375 -73.03125 63.9375 -66.285156 63.9375 -57.453125 L 63.9375 -25.78125 C 63.9375 -16.945312 61.34375 -10.203125 56.15625 -5.546875 C 50.976562 -0.890625 43.828125 1.4375 34.703125 1.4375 Z M 34.84375 -14.109375 C 37.050781 -14.109375 38.585938 -14.945312 39.453125 -16.625 C 40.316406 -18.3125 40.75 -20.832031 40.75 -24.1875 L 40.75 -59.046875 C 40.75 -62.398438 40.316406 -64.914062 39.453125 -66.59375 C 38.585938 -68.28125 37.050781 -69.125 34.84375 -69.125 C 32.632812 -69.125 31.070312 -68.257812 30.15625 -66.53125 C 29.25 -64.800781 28.796875 -62.304688 28.796875 -59.046875 L 28.796875 -24.1875 C 28.796875 -20.832031 29.25 -18.3125 30.15625 -16.625 C 31.070312 -14.945312 32.632812 -14.109375 34.84375 -14.109375 Z M 34.84375 -14.109375 "/></g></g></g><g fill="#000000" fill-opacity="1"><g transform="translate(567.349016, 214.499982)"><g><path d="M 22.03125 1.4375 C 17.039062 1.4375 13.203125 -0.359375 10.515625 -3.953125 C 7.828125 -7.554688 6.484375 -12.238281 6.484375 -18 L 6.484375 -83.234375 L 29.953125 -83.234375 L 29.953125 -20.734375 C 29.953125 -18.617188 30.332031 -17.035156 31.09375 -15.984375 C 31.863281 -14.929688 33.113281 -14.40625 34.84375 -14.40625 C 36.382812 -14.40625 38.691406 -15.265625 41.765625 -16.984375 L 41.765625 -83.234375 L 65.09375 -83.234375 L 65.09375 0 L 41.765625 0 L 41.765625 -7.625 C 35.234375 -1.582031 28.65625 1.4375 22.03125 1.4375 Z M 22.03125 1.4375 "/></g></g></g><g fill="#000000" fill-opacity="1"><g transform="translate(639.924968, 214.499982)"><g><path d="M 32.96875 1.4375 C 25.582031 1.4375 19.460938 -0.21875 14.609375 -3.53125 C 9.765625 -6.84375 5.851562 -12.144531 2.875 -19.4375 L 18.859375 -26.5 C 20.398438 -22.65625 22.203125 -19.675781 24.265625 -17.5625 C 26.328125 -15.457031 28.609375 -14.40625 31.109375 -14.40625 C 34.753906 -14.40625 36.578125 -15.84375 36.578125 -18.71875 C 36.578125 -20.832031 35.851562 -22.726562 34.40625 -24.40625 C 32.96875 -26.082031 29.851562 -28.890625 25.0625 -32.828125 L 19.015625 -37.875 C 14.015625 -42.09375 10.382812 -45.929688 8.125 -49.390625 C 5.875 -52.847656 4.75 -56.976562 4.75 -61.78125 C 4.75 -66.195312 5.925781 -70.128906 8.28125 -73.578125 C 10.632812 -77.035156 13.773438 -79.75 17.703125 -81.71875 C 21.640625 -83.6875 25.867188 -84.671875 30.390625 -84.671875 C 37.203125 -84.671875 42.882812 -82.820312 47.4375 -79.125 C 52 -75.425781 55.242188 -70.125 57.171875 -63.21875 L 42.046875 -56.296875 C 41.085938 -59.367188 39.597656 -62.128906 37.578125 -64.578125 C 35.566406 -67.023438 33.359375 -68.25 30.953125 -68.25 C 29.421875 -68.25 28.195312 -67.816406 27.28125 -66.953125 C 26.375 -66.085938 25.921875 -64.9375 25.921875 -63.5 C 25.921875 -61.769531 26.851562 -59.894531 28.71875 -57.875 C 30.59375 -55.863281 33.546875 -53.226562 37.578125 -49.96875 L 43.484375 -44.78125 C 48.285156 -40.75 51.984375 -36.976562 54.578125 -33.46875 C 57.171875 -29.96875 58.46875 -25.867188 58.46875 -21.171875 C 58.46875 -16.460938 57.289062 -12.40625 54.9375 -9 C 52.582031 -5.59375 49.460938 -3 45.578125 -1.21875 C 41.691406 0.550781 37.488281 1.4375 32.96875 1.4375 Z M 32.96875 1.4375 "/></g></g></g><g fill="#000000" fill-opacity="1"><g transform="translate(700.980933, 214.499982)"><g/></g></g><g fill="#000000" fill-opacity="1"><g transform="translate(737.844913, 214.499982)"><g><path d="M 25.0625 -116.640625 L 54.4375 -116.640625 L 76.171875 0 L 52.421875 0 L 48.53125 -24.625 L 31.390625 -24.625 L 27.359375 0 L 3.03125 0 Z M 46.078125 -40.03125 L 39.890625 -85.53125 L 33.703125 -40.03125 Z M 46.078125 -40.03125 "/></g></g></g><g fill="#000000" fill-opacity="1"><g transform="translate(817.188855, 214.499982)"><g><path d="M 8.78125 -116.640625 L 34.5625 -116.640625 L 34.5625 0 L 8.78125 0 Z M 8.78125 -116.640625 "/></g></g></g></svg>